<?xml version="1.0" encoding="UTF-8" standalone="no"?>
<!-- Created with Inkscape (http://www.inkscape.org/) -->

<svg
   xmlns:dc="http://purl.org/dc/elements/1.1/"
   xmlns:cc="http://creativecommons.org/ns#"
   xmlns:rdf="http://www.w3.org/1999/02/22-rdf-syntax-ns#"
   xmlns:svg="http://www.w3.org/2000/svg"
   xmlns="http://www.w3.org/2000/svg"
   xmlns:sodipodi="http://sodipodi.sourceforge.net/DTD/sodipodi-0.dtd"
   xmlns:inkscape="http://www.inkscape.org/namespaces/inkscape"
   width="555.34998"
   height="561.11249"
   id="svg3280"
   version="1.1"
   inkscape:version="0.48.4 r9939"
   sodipodi:docname="logo.png">
  <defs
     id="defs3282" />
  <sodipodi:namedview
     id="base"
     pagecolor="#000000"
     bordercolor="#000000"
     borderopacity="0"
     inkscape:pageopacity="0"
     inkscape:pageshadow="2"
     inkscape:zoom="0.35"
     inkscape:cx="553.57143"
     inkscape:cy="405.71429"
     inkscape:document-units="pt"
     inkscape:current-layer="layer1"
     showgrid="false"
     units="pt"
     inkscape:window-width="1366"
     inkscape:window-height="713"
     inkscape:window-x="0"
     inkscape:window-y="30"
     inkscape:window-maximized="1" />
  <metadata
     id="metadata3285">
    <rdf:RDF>
      <cc:Work
         rdf:about="">
        <dc:format>image/svg+xml</dc:format>
        <dc:type
           rdf:resource="http://purl.org/dc/dcmitype/StillImage" />
        <dc:title></dc:title>
      </cc:Work>
    </rdf:RDF>
  </metadata>
  <g
     inkscape:label="Layer 1"
     inkscape:groupmode="layer"
     id="layer1"
     transform="translate(0,-491.2455)">
    <path
       inkscape:connector-curvature="0"
       d="m 431.18842,945.49678 c 1.68956,0 3.34338,0.31302 4.92934,1.02244 2.75578,1.23929 4.93112,3.6895 5.96342,6.72424 0.98051,2.86833 0.90728,5.96648 -0.20896,8.96847 -2.31822,6.24026 -6.46172,9.25958 -13.02344,9.25958 -2.77543,0 -5.97771,-0.54073 -9.65864,-1.60486 -2.2307,-0.63936 -4.44354,-1.41446 -6.58673,-2.1612 -4.33281,-1.51079 -8.78707,-3.04559 -13.51102,-3.57547 5.89913,-2.96905 11.52857,-7.11608 16.47934,-12.46091 4.92575,-3.24265 10.43732,-6.17229 15.61669,-6.17229 z m 33.75343,-75.14382 c 2.28786,3.57565 2.50575,7.68328 1.16983,8.97075 -0.55544,0.53425 -1.16804,0.80575 -1.82171,0.80575 -0.88764,0 -1.82529,-0.51463 -2.58255,-1.41446 -1.39664,-1.64655 -1.86278,-4.04631 -2.40394,-6.82496 -0.23396,-1.21075 -0.47686,-2.46545 -0.8162,-3.71351 -0.39649,-1.48452 -0.76261,-2.84643 -1.21447,-4.08345 2.9326,0.6919 5.40083,2.71506 7.66904,6.25988 z m -75.09374,124.21196 c 0.8412,-0.37451 1.62525,-0.81679 2.38251,-1.24363 1.4663,-0.8277 2.73078,-1.54582 3.97026,-1.54582 0.1786,0 0.35899,0.0174 0.53401,0.0435 1.02159,0.17948 2.11283,0.94153 2.11283,2.57704 0,1.22616 -1.86458,3.00408 -4.78289,3.00408 -1.41985,0 -2.94867,-0.26493 -4.19172,-0.727 l -0.0536,-0.0193 -0.0536,-0.0174 c -0.92514,-0.29109 -1.93066,-0.66126 -2.9451,-1.13627 0.97336,-0.16645 1.98959,-0.47965 3.02725,-0.93941 z M 544.76847,815.42551 c -6.81891,-0.31303 -10.32124,-8.13415 -14.6594,-13.31467 -4.77396,-5.69953 -10.36768,-10.24069 -16.52042,-13.44183 -12.99843,-6.76787 -28.13649,-7.82989 -41.66179,-2.89233 -8.32628,3.03911 -14.55581,8.2678 -20.68355,14.28911 -3.23621,2.38435 -6.21168,5.18489 -8.90137,8.42317 -12.60731,15.17808 -16.49541,36.35345 -17.50985,51.81827 -0.86621,-1.89616 -1.82172,-3.74853 -2.85759,-5.59425 -5.97949,-10.61291 -19.8602,-28.15345 -11.25531,-41.73541 2.21105,-3.48789 8.79957,-8.01591 12.71626,-6.81831 -11.59823,-3.55358 -17.06157,9.27728 -21.43546,20.00826 -1.29842,3.20342 -1.82885,6.67817 -1.86457,10.23193 -0.0662,7.0723 2.36822,13.86433 4.84896,20.09583 1.68419,4.23901 3.71843,8.67069 5.93663,13.16368 -3.53805,-2.37576 -7.21898,-4.01566 -10.8481,-4.89815 -12.93236,-3.13108 -28.68837,-1.89388 -37.94158,10.81208 -7.71548,10.59751 -11.31246,28.02434 -7.93873,41.8843 2.40394,9.85743 5.01506,19.87251 -3.05226,27.43527 0,0 27.66143,10.01945 24.51808,-40.84855 0,0 -5.23474,-25.08595 11.34103,-33.90763 1.69492,-0.33719 3.48626,-0.52339 5.3419,-0.49922 -6.3992,4.95053 -9.83009,16.02098 -8.61025,24.87996 0.86085,6.25777 1.83957,12.4828 2.76649,18.73182 0.25362,1.70787 2.16105,10.31286 0.47686,11.60243 4.42568,-3.39383 7.22612,-9.07566 8.67455,-15.09926 1.49488,-6.21398 0.85371,-10.21213 -0.1233,-16.46553 -0.38756,-2.49382 -0.73761,-5.00307 -0.94836,-7.52983 -0.22861,-2.7282 -0.39291,-11.15592 1.70384,-15.71461 0.89299,0.17745 1.78955,0.38765 2.69862,0.68315 4.93113,1.57877 9.98548,4.90463 14.28258,9.7786 0.534,0.59994 1.05372,1.23281 1.53773,1.87217 l 0.35541,0.47504 0.15003,0.21459 0.0698,0.0981 c -0.0268,-0.0368 0.13045,0.19268 -0.05,-0.0684 l 0.0393,0.0718 0.6251,1.16047 c 0.88406,1.51081 1.59846,3.17487 2.2825,4.85436 1.30912,3.40696 2.15926,7.07229 2.71827,10.76601 0.54473,3.69826 0.88585,7.42263 0.99479,11.23913 0.10717,3.82508 -0.27682,7.71603 -0.94835,11.6047 -1.42522,7.75107 -4.40604,15.44292 -8.75314,22.04666 -2.16284,3.31289 -4.68644,6.31033 -7.44579,8.95094 -2.78615,2.57721 -5.80626,4.86084 -8.99247,6.54908 -6.38848,3.58651 -13.32705,4.92215 -20.05309,4.88274 -6.73319,-0.0456 -13.23241,-1.6138 -19.12975,-3.97853 -5.90984,-2.37122 -11.18922,-5.68622 -15.74528,-9.27711 -4.51141,-3.69388 -8.33522,-7.63721 -11.29996,-11.6026 -2.97547,-3.95646 -5.1883,-7.78382 -6.78319,-11.07255 -0.81977,-1.63342 -1.43773,-3.16401 -1.9896,-4.48423 -0.4965,-1.34001 -0.87692,-2.45897 -1.1984,-3.39821 -0.56794,-1.90281 -2.47538,-7.93936 -2.64505,-8.478 0.006,-0.0175 0.007,-0.0351 0.0129,-0.0525 -0.007,0 -0.016,0.0175 -0.025,0.0175 -9.7e-4,-0.002 -0.006,-0.0175 -0.006,-0.0175 l -3.50768,1.69683 c 0,0 0.025,0.0788 0.0607,0.19268 -0.56973,0.34158 -1.09481,0.71608 -1.49844,1.15399 -0.18397,0.20144 -0.35541,0.42039 -0.51973,0.65687 -1.62525,2.31656 -2.37715,5.39071 -3.90775,7.82323 -5.15079,8.17584 -13.24669,12.84627 -18.89398,20.47472 -6.42778,8.69469 -9.8033,21.97449 -9.36752,33.6426 0.28218,7.65472 2.96831,16.50491 6.35277,22.91823 1.72348,3.2691 3.75058,6.4395 6.21881,8.9137 1.68419,1.6904 3.61127,3.2275 5.84912,3.3326 1.82171,0.088 5.3544,-0.7904 5.59373,-3.5974 0.31254,-3.5865 -4.09171,-4.2719 -5.95628,-5.2593 -2.65577,-1.408 -4.80075,-2.4328 -6.64746,-5.21798 -4.43819,-6.69566 -6.48493,-12.87673 -5.01328,-21.59117 1.2877,-7.62407 5.46156,-13.95419 9.84438,-19.37118 -1.5681,1.93785 1.2877,9.36048 2.28071,10.81646 2.92188,4.27193 10.57842,7.56504 14.92909,5.80462 5.41334,-2.19394 2.71828,-10.5756 -2.85758,-7.11398 0,0 -10.3391,9.57278 -12.24475,-10.09828 -0.13931,-1.4495 5.49727,-5.73439 6.41528,-6.66942 6.90463,-7.04165 11.78218,-16.19403 12.61266,-27.19442 0.7644,1.92245 1.7967,4.42083 3.28623,7.23871 1.78955,3.43762 4.23815,7.40301 7.46365,11.4383 3.19335,4.06821 7.20647,8.15394 11.93041,11.94189 2.37,1.87427 4.92397,3.66323 7.64404,5.33168 2.73971,1.62903 5.64909,3.09604 8.69777,4.42293 6.10451,2.6252 12.87163,4.28489 19.97451,4.66149 2.04139,0.0964 4.11313,0.0508 6.19739,-0.12612 -2.48609,2.40642 -4.28816,5.57692 -5.22045,9.39552 -1.08589,4.45796 -0.82691,8.45608 0.76977,11.88709 2.51109,5.40386 7.6994,8.00292 11.67679,9.2422 1.52524,0.56706 3.28445,0.85606 4.91862,0.85606 4.02919,0 7.29577,-2.72387 7.29577,-6.08469 0,-3.10275 -1.90922,-5.22438 -4.28102,-5.62717 -0.29826,-0.0521 -0.58938,-0.0772 -0.8787,-0.0772 -2.58969,0 -4.80789,1.90701 -7.20647,2.97337 -1.16983,0.5145 -2.47717,0.89336 -3.75237,0.89336 -0.37327,0 -0.74297,-0.0348 -1.10553,-0.10331 -2.11282,-0.41168 -2.92544,-1.81297 -3.93632,-3.98065 -1.15375,-2.48526 -1.31806,-5.46745 -0.48937,-8.87441 2.63791,-10.81857 12.71269,-11.78198 15.73637,-11.82576 0.091,0 0.18217,0 0.27325,0 5.54908,0 10.64629,1.76041 16.0239,3.63468 2.17713,0.75758 4.42569,1.54355 6.72248,2.20708 3.16834,0.91734 6.7939,1.72976 10.37481,1.72976 6.3367,0 12.54837,-2.5399 15.88996,-11.53692 1.46808,-3.9456 1.5556,-8.22611 0.25004,-12.05137 -1.36985,-4.02442 -4.20958,-7.24957 -7.78335,-8.85671 -1.96995,-0.88458 -3.99169,-1.26785 -6.02771,-1.26785 -3.20943,0 -6.45636,0.96132 -9.60506,2.39539 0.63045,-0.95465 1.23769,-1.9312 1.81992,-2.93402 5.59015,-3.4441 12.11973,-4.4513 17.97242,-1.34877 7.36543,3.90409 10.92312,13.88413 7.51902,23.07593 -1.3252,3.58423 -5.12936,9.42827 -8.4638,10.58646 4.94183,-1.71662 10.79987,-4.7228 14.57189,-9.1107 7.46544,-8.68819 6.1706,-23.5247 -0.23933,-32.294 -6.1438,-8.41003 -14.69512,-8.17794 -21.99089,-3.75292 4.19351,-8.75161 4.09528,-19.22439 3.99347,-29.4649 -0.0412,-4.04194 -0.0822,-8.22401 0.13031,-12.29222 0.60723,-11.50626 3.12012,-18.90034 7.06895,-23.29927 1.36985,-1.52394 6.18488,-2.88795 8.71206,-1.57421 2.35751,1.2195 2.73613,4.88711 3.4416,7.5167 1.09124,4.06173 1.19483,8.65106 3.85953,11.79965 1.21982,1.44512 2.76649,2.27488 4.32923,2.27488 1.16269,0 2.33072,-0.45753 3.37552,-1.46474 2.65577,-2.56179 2.32001,-8.51303 -0.74475,-13.29731 -2.32893,-3.63678 -4.94898,-5.96001 -7.9798,-7.02624 -3.28802,-2.03419 -6.34741,-3.06766 -9.15499,-3.06766 -2.1539,0 -4.15957,0.60221 -6.00807,1.80419 -5.6991,3.70703 -9.3568,13.21412 -10.03548,26.0865 -0.22325,4.215 -0.18039,8.47151 -0.13745,12.59 0.11431,11.34424 0.20896,21.53886 -4.68108,29.60294 0.27505,-0.90858 0.54652,-1.81506 0.77869,-2.73906 3.97204,-15.8635 2.4611,-38.381 -1.09838,-54.3079 -0.0839,-0.36119 -0.17682,-0.70942 -0.26433,-1.06623 0,-0.58033 0.003,-1.17589 0.0129,-1.79544 7.44759,-19.84852 32.17462,-15.30945 42.85842,-33.21572 -22.45883,-10.22528 -37.10574,5.02934 -42.75839,29.41673 0.5858,-14.90218 3.76844,-37.59696 16.54719,-52.95895 12.18224,-14.65047 29.95642,-21.93298 44.44973,-8.69486 14.6344,13.36739 37.80405,24.61073 55.40677,12.35353 -0.0304,-0.002 -0.059,-0.002 -0.0876,0"
       style="fill:#c0a676;fill-opacity:1;fill-rule:nonzero;stroke:none"
       id="path16" />
    <path
       inkscape:connector-curvature="0"
       d="m 166.80294,996.64069 -0.0536,0.0174 -0.0536,0.0193 c -1.24484,0.46188 -2.77007,0.72691 -4.19171,0.72691 -2.91832,0 -4.7811,-1.77793 -4.7811,-3.00408 0,-1.63571 1.08945,-2.39766 2.11282,-2.57724 0.17503,-0.028 0.35363,-0.0435 0.53223,-0.0435 1.23948,0 2.50574,0.71822 3.97204,1.54583 0.75547,0.42712 1.53952,0.86941 2.37894,1.24372 1.04123,0.45976 2.05568,0.77296 3.03082,0.93941 -1.01444,0.47501 -2.01995,0.84518 -2.94688,1.13627 z m -22.83746,-28.93524 c -2.1414,0.74674 -4.35603,1.52184 -6.58316,2.1612 -3.6827,1.06413 -6.88856,1.60486 -9.66221,1.60486 -6.56082,0 -10.70629,-3.01932 -13.02308,-9.25958 -1.1157,-3.00199 -1.18749,-6.10014 -0.20931,-8.96847 1.03587,-3.03474 3.20854,-5.48495 5.96485,-6.72424 1.58435,-0.70942 3.23925,-1.02244 4.92897,-1.02244 5.17831,0 10.69166,2.92964 15.61741,6.17229 4.95255,5.34483 10.58199,9.49186 16.48112,12.46091 -4.72752,0.52988 -9.18177,2.06468 -13.51459,3.57547 z M 98.08089,868.17653 c -0.33755,1.24806 -0.579016,2.50276 -0.815481,3.71351 -0.539898,2.77865 -1.008185,5.17841 -2.4034,6.82496 -0.756188,0.89983 -1.69669,1.41446 -2.583442,1.41446 -0.652958,0 -1.264838,-0.2715 -1.820095,-0.80575 -1.336821,-1.28747 -1.121245,-5.3951 1.168565,-8.97075 2.269466,-3.54482 4.736275,-5.56798 7.672083,-6.25988 -0.4549,1.23702 -0.81977,2.59893 -1.21823,4.08345 z m 169.77159,76.70051 c -5.64551,-7.62845 -13.7414,-12.29871 -18.8922,-20.47455 -1.53238,-2.43269 -2.28428,-5.50684 -3.90775,-7.82341 -0.16253,-0.23647 -0.33577,-0.45542 -0.52151,-0.65687 -0.40363,-0.43791 -0.92871,-0.81223 -1.49844,-1.15609 0.0374,-0.1121 0.0607,-0.1904 0.0607,-0.1904 l -3.5059,-1.697 c 0,0 -0.006,0.0175 -0.006,0.0175 -0.009,0 -0.0178,-0.0175 -0.025,-0.0175 0.006,0.0175 0.007,0.0368 0.0129,0.0525 -0.16967,0.53864 -2.07889,6.57536 -2.64505,8.478 -0.32148,0.93941 -0.7019,2.05819 -1.20019,3.3982 -0.55187,1.32041 -1.16803,2.85082 -1.9878,4.48424 -1.59846,3.28873 -3.80952,7.11609 -6.78498,11.07272 -2.96474,3.96522 -6.78855,7.90872 -11.29996,11.60243 -4.55606,3.59089 -9.83188,6.90589 -15.74529,9.27728 -5.89555,2.36473 -12.39477,3.93246 -19.12974,3.97835 -6.72426,0.0403 -13.66104,-1.29622 -20.05131,-4.88273 -3.188,-1.68807 -6.20631,-3.97187 -8.99425,-6.54891 -2.75935,-2.64061 -5.28118,-5.63822 -7.444,-8.95094 -4.3471,-6.60374 -7.32971,-14.29576 -8.75493,-22.04683 -0.67153,-3.88868 -1.05552,-7.77945 -0.94658,-11.60471 0.10717,-3.81632 0.44829,-7.54086 0.9948,-11.23895 0.55901,-3.69389 1.40736,-7.35922 2.71828,-10.76618 0.68582,-1.67932 1.39485,-3.34338 2.28071,-4.85419 l 0.62688,-1.16046 0.0392,-0.0718 c -0.18038,0.26046 -0.025,0.0316 -0.05,0.0684 l 0.0697,-0.0981 0.15181,-0.21458 0.35184,-0.47522 c 0.48579,-0.63936 1.00194,-1.27206 1.53773,-1.87199 4.29889,-4.87398 9.35324,-8.20002 14.28436,-9.77861 0.90728,-0.29567 1.80385,-0.50588 2.69863,-0.68315 2.09675,4.55869 1.93422,12.98623 1.70383,15.71444 -0.21074,2.52675 -0.5608,5.036 -0.95193,7.53 -0.97336,6.2534 -1.61454,10.25155 -0.1196,16.46554 1.44666,6.02341 4.24888,11.70542 8.67278,15.09925 -1.68241,-1.28974 0.22503,-9.89473 0.47685,-11.6026 0.92872,-6.24902 1.90744,-12.47387 2.76651,-18.73165 1.22162,-8.85898 -2.20927,-19.92943 -8.60848,-24.88013 1.85565,-0.0245 3.64699,0.16115 5.3419,0.49922 16.57399,8.82185 11.33926,33.90763 11.33926,33.90763 -3.14335,50.868 24.51806,40.84855 24.51806,40.84855 -8.06553,-7.56277 -5.45262,-17.57784 -3.05226,-27.43527 3.37374,-13.85996 -0.22145,-31.28663 -7.93872,-41.88413 -9.24964,-12.70613 -25.00743,-13.94316 -37.94157,-10.81208 -3.62735,0.88231 -7.31006,2.52239 -10.84632,4.89798 2.21641,-4.493 4.25065,-8.92467 5.93663,-13.16368 2.48074,-6.23151 4.91505,-13.02354 4.84718,-20.09584 -0.034,-3.55358 -0.56437,-7.0285 -1.86458,-10.23175 -4.37389,-10.73115 -9.83724,-23.56201 -21.43545,-20.00826 3.91667,-1.19778 10.50698,3.33024 12.71804,6.81831 8.60489,13.58179 -5.27582,31.1225 -11.25531,41.73523 -1.03767,1.8459 -1.99317,3.69827 -2.85937,5.59443 -1.01266,-15.46499 -4.90148,-36.64019 -17.50931,-51.81827 -2.69095,-3.23845 -5.66428,-6.03882 -8.89995,-8.42335 -6.13042,-6.02131 -12.358339,-11.24999 -20.685526,-14.28911 -13.522617,-4.93738 -28.66157,-3.87553 -41.660178,2.89251 -6.152736,3.20114 -11.746458,7.7423 -16.521124,13.44166 -4.339499,5.18069 -7.840396,13.00182 -14.66055,13.31484 -0.02729,0 -0.05729,0 -0.08516,0 17.602548,12.25719 40.77077,1.01368 55.405531,-12.35354 14.492953,-13.23812 32.267837,-5.95561 44.449547,8.69468 12.77823,15.362 15.96068,38.05694 16.54648,52.95913 -5.65122,-24.38739 -20.29921,-39.64219 -42.758753,-29.41691 10.684508,17.90627 35.410833,13.36739 42.860553,33.21572 0.007,0.61973 0.01,1.2153 0.01,1.79544 -0.0857,0.357 -0.18039,0.70504 -0.26433,1.06641 -3.56001,15.9269 -5.07042,38.44441 -1.09802,54.30773 0.23235,0.92399 0.50383,1.83047 0.77833,2.73923 -4.89021,-8.06426 -4.79253,-18.25888 -4.68018,-29.60294 0.0433,-4.11866 0.0836,-8.37518 -0.13817,-12.59 -0.67886,-12.87255 -4.33657,-22.37964 -10.03494,-26.0865 -1.84815,-1.20215 -3.85525,-1.8042 -6.00967,-1.8042 -2.80527,0 -5.86449,1.03348 -9.151786,3.0675 -3.032083,1.0664 -5.652302,3.38944 -7.982491,7.0264 -3.066187,4.78412 -3.398382,10.73536 -0.742971,13.29715 1.04499,1.00721 2.212127,1.46491 3.373735,1.46491 1.562741,0 3.112981,-0.82993 4.331027,-2.27505 2.664336,-3.1486 2.767566,-7.73792 3.859526,-11.79949 0.70601,-2.62975 1.08624,-6.29718 3.44072,-7.51686 2.52699,-1.31374 7.34221,0.0508 8.71099,1.57438 3.9515,4.39876 6.46296,11.793 7.07002,23.2991 0.21414,4.06821 0.17217,8.25028 0.13174,12.29221 -0.10201,10.2407 -0.20165,20.7133 3.99114,29.46509 -7.2938,-4.4252 -15.84566,-4.65502 -21.99054,3.75291 -6.407953,8.76913 -7.70351,23.60563 -0.23933,32.29383 3.77292,4.38789 9.63097,7.39425 14.57119,9.11088 -3.33283,-1.15837 -7.13699,-7.00224 -8.46327,-10.58664 -3.40392,-9.1918 0.15627,-19.17185 7.52134,-23.07576 5.84983,-3.1027 12.37834,-2.0955 17.97028,1.34877 0.58402,1.00282 1.18946,1.97937 1.8217,2.93402 -3.1487,-1.43426 -6.39562,-2.39539 -9.6063,-2.39539 -2.03709,0 -4.05598,0.38309 -6.02771,1.26767 -3.57538,1.60715 -6.41206,4.83247 -7.78371,8.85689 -1.30448,3.82509 -1.21732,8.10577 0.24843,12.05137 3.34177,8.99684 9.55433,11.53674 15.89317,11.53674 3.58091,0 7.20647,-0.81224 10.37303,-1.72976 2.29679,-0.66335 4.54892,-1.44949 6.72426,-2.20708 5.37761,-1.87426 10.47304,-3.63468 16.02568,-3.63468 0.0857,0 0.17861,0 0.26969,0 3.02547,0.0438 13.09845,1.0072 15.73815,11.82593 0.82869,3.40697 0.66438,6.38916 -0.48937,8.87425 -1.00908,2.16769 -1.82528,3.56898 -3.93632,3.98056 -0.36434,0.0685 -0.73405,0.10341 -1.10553,0.10341 -1.2752,0 -2.58432,-0.37876 -3.75237,-0.89336 -2.39679,-1.06627 -4.61857,-2.97347 -7.20825,-2.97347 -0.28754,0 -0.58044,0.0241 -0.87692,0.0772 -2.37358,0.40289 -4.28459,2.52472 -4.28459,5.62727 0,3.36101 3.26657,6.08479 7.29756,6.08479 1.63417,0 3.39516,-0.2889 4.91861,-0.85616 3.97918,-1.23928 9.16391,-3.83825 11.6768,-9.24201 1.59668,-3.43121 1.85744,-7.42933 0.76977,-11.88728 -0.93229,-3.8186 -2.73257,-6.9891 -5.22045,-9.39534 2.08424,0.17726 4.156,0.22333 6.19739,0.12612 7.10288,-0.37662 13.87178,-2.03631 19.97629,-4.66168 3.0469,-1.32688 5.95806,-2.79389 8.69599,-4.42293 2.72006,-1.66844 5.27582,-3.45723 7.64582,-5.3315 4.72216,-3.78795 8.73528,-7.87368 11.92863,-11.94189 3.2255,-4.03547 5.67231,-8.00068 7.46723,-11.4383 1.48773,-2.81806 2.51824,-5.31626 3.28444,-7.23871 0.82869,11.00039 5.7098,20.15278 12.61266,27.19442 0.918,0.93485 6.55637,5.21992 6.41706,6.66942 -1.90922,19.67106 -12.24475,10.09827 -12.24653,10.09827 -5.57766,-3.46179 -8.27092,4.91987 -2.85581,7.11382 4.34889,1.76041 12.00364,-1.53269 14.92732,-5.80445 0.99479,-1.45615 3.84522,-8.87878 2.2807,-10.81646 4.38461,5.41699 8.55668,11.74694 9.8426,19.37101 1.47522,8.71443 -0.57509,14.8957 -5.01149,21.59137 -1.84672,2.78508 -3.99169,3.80988 -6.64925,5.21758 -1.86278,0.9876 -6.26525,1.6729 -5.95806,5.2594 0.24468,2.807 3.77559,3.6851 5.59551,3.5975 2.23963,-0.105 4.16493,-1.6422 5.8509,-3.3325 2.47003,-2.4742 4.49355,-5.6447 6.21881,-8.9138 3.38446,-6.41313 6.06881,-15.26333 6.35278,-22.91806 0.43578,-11.66829 -2.93974,-24.94792 -9.36931,-33.64277"
       style="fill:#c0a676;fill-opacity:1;fill-rule:nonzero;stroke:none"
       id="path18" />
    <path
       inkscape:connector-curvature="0"
       d="m 279.48821,1001.8364 c 2.05567,1.4364 3.88095,3.5056 5.40618,5.7017 3.18443,4.5893 5.44906,10.6348 4.9597,16.7656 -0.76976,9.6253 -6.38313,16.4545 -10.11584,24.4793 -0.56617,1.2152 -1.45201,2.8924 -1.45201,4.366 0,-1.4736 -0.88942,-3.1508 -1.4538,-4.366 -3.73093,-8.0248 -9.34609,-14.854 -10.11764,-24.4793 -0.48757,-6.1308 1.77885,-12.1763 4.96327,-16.7656 1.52166,-2.1961 3.35051,-4.2653 5.4062,-5.7017 l 2.40394,0"
       style="fill:#c0a676;fill-opacity:1;fill-rule:nonzero;stroke:none"
       id="path20" />
    <path
       inkscape:connector-curvature="0"
       d="m 100.16283,777.86797 c -1.96531,0 -3.56431,-1.95538 -3.56431,-4.3639 0,-2.4129 1.599,-4.37248 3.56431,-4.37248 1.60525,0.0175 11.2537,1.89389 23.13124,4.3681 -11.87754,2.47648 -21.52313,4.35514 -23.13124,4.36828 z m 45.05464,-18.75373 c -5.78662,0 -10.58199,5.139 -11.54822,11.89162 -12.45281,-2.66251 -30.86102,-6.49863 -33.50642,-6.49863 -4.0542,0 -7.335249,4.02652 -7.335249,8.99684 0,4.96383 3.281049,8.99036 7.335249,8.99036 2.6454,0 21.05361,-3.83613 33.50642,-6.49636 0.96623,6.75262 5.7634,11.88935 11.54822,11.88935 6.47957,0 11.73395,-6.44398 11.73395,-14.38773 0,-7.94585 -5.25438,-14.38545 -11.73395,-14.38545"
       style="fill:#c0a676;fill-opacity:1;fill-rule:nonzero;stroke:none"
       id="path22" />
    <path
       inkscape:connector-curvature="0"
       d="m 456.40839,777.86797 c -1.60739,-0.0175 -11.2553,-1.8918 -23.13393,-4.36828 11.87863,-2.47421 21.52833,-4.35285 23.13393,-4.3681 1.96459,0 3.56305,1.95958 3.56305,4.37248 0,2.40852 -1.59846,4.3639 -3.56305,4.3639 z m 0,-13.36074 c -2.64683,0 -21.05504,3.83612 -33.50875,6.49863 -0.96442,-6.75262 -5.76159,-11.89162 -11.54821,-11.89162 -6.47957,0 -11.73217,6.4396 -11.73217,14.38545 0,7.94375 5.2526,14.38773 11.73217,14.38773 5.78662,0 10.58199,-5.13673 11.54821,-11.88935 12.45371,2.66023 30.86192,6.49636 33.50875,6.49636 4.05242,0 7.33328,-4.02653 7.33328,-8.99036 0,-4.97032 -3.28086,-8.99684 -7.33328,-8.99684"
       style="fill:#c0a676;fill-opacity:1;fill-rule:nonzero;stroke:none"
       id="path24" />
    <path
       inkscape:connector-curvature="0"
       d="m 415.57173,595.3303 c -4.95077,-5.34464 -10.58199,-9.49395 -16.47934,-12.46073 4.72395,-0.52988 9.17821,-2.06257 13.51102,-3.57337 2.14319,-0.74673 4.35603,-1.52183 6.58673,-2.16329 3.68093,-1.06203 6.88321,-1.60276 9.65864,-1.60276 6.56172,0 10.70522,3.01932 13.02344,9.25748 1.11624,3.00181 1.18947,6.10224 0.20896,8.97057 -1.0323,3.03263 -3.20764,5.48495 -5.96342,6.72197 -1.58596,0.7117 -3.23978,1.02261 -4.92934,1.02261 -5.17937,0 -10.69094,-2.92754 -15.61669,-6.17248 z m -25.80577,-44.96925 0.0536,-0.0157 0.0536,-0.0198 c 1.24305,-0.462 2.77187,-0.72694 4.19172,-0.72694 2.91831,0 4.78289,1.78012 4.78289,3.00409 0,1.63779 -1.09124,2.39976 -2.11283,2.57711 -0.17502,0.0306 -0.35541,0.0438 -0.53401,0.0438 -1.23948,0 -2.50396,-0.71598 -3.97026,-1.54364 -0.75726,-0.42915 -1.54131,-0.87144 -2.38251,-1.24367 -1.03766,-0.462 -2.05389,-0.77292 -3.02725,-0.93932 1.01444,-0.47733 2.01996,-0.84518 2.9451,-1.13639 z m 68.72132,128.46407 c 0.33934,-1.24805 0.58224,-2.50276 0.8162,-3.7135 0.54116,-2.77865 1.0073,-5.18052 2.40394,-6.82707 0.75726,-0.89772 1.69491,-1.41236 2.58255,-1.41236 0.65367,0 1.26627,0.27151 1.82171,0.80576 1.33592,1.28974 1.11803,5.39509 -1.16983,8.96847 -2.26821,3.54499 -4.73644,5.57025 -7.66904,6.26216 0.45186,-1.23703 0.81798,-2.59893 1.21447,-4.08346 z m 30.96193,65.09791 c -14.49331,13.23812 -32.26749,5.95352 -44.44972,-8.69468 -12.77876,-15.36427 -15.96139,-38.05694 -16.5472,-52.96123 5.65265,24.38739 20.29956,39.64201 42.75839,29.41674 -10.68379,-17.90628 -35.41082,-13.36512 -42.8584,-33.21345 -0.009,-0.61973 -0.0129,-1.21967 -0.0129,-1.79772 0.0876,-0.35681 0.18039,-0.70504 0.26433,-1.06623 3.55948,-15.92253 5.07043,-38.44231 1.09839,-54.30789 -0.23218,-0.924 -0.50365,-1.83259 -0.77691,-2.73469 4.88826,8.06199 4.7936,18.2566 4.6793,29.60066 -0.0428,4.11866 -0.0857,8.3729 0.13745,12.59228 0.67867,12.87027 4.33638,22.37737 10.03547,26.08422 1.8485,1.19988 3.85417,1.8021 6.00808,1.8021 2.80757,0 5.86698,-1.03348 9.15498,-3.0654 3.03083,-1.0664 5.65087,-3.38944 7.97981,-7.0264 3.06475,-4.78639 3.40052,-10.73763 0.74475,-13.29942 -1.04481,-1.00493 -2.21284,-1.46264 -3.37552,-1.46264 -1.56274,0 -3.10941,0.83204 -4.32924,2.27505 -2.6647,3.1486 -2.76829,7.73565 -3.85953,11.79949 -0.70546,2.62975 -1.08409,6.29509 -3.4416,7.51687 -2.52718,1.31145 -7.3422,-0.0508 -8.71205,-1.57439 -3.94883,-4.40103 -6.46172,-11.79511 -7.06896,-23.30136 -0.21253,-4.06594 -0.17145,-8.24801 -0.13031,-12.29223 0.10173,-10.23842 0.20004,-20.71102 -3.99347,-29.46281 7.29577,4.4252 15.8471,4.65502 21.9909,-3.75291 6.40992,-8.77141 7.70476,-23.6079 0.23932,-32.29382 -3.77201,-4.39017 -9.63006,-7.39636 -14.57189,-9.11088 3.33445,1.15609 7.1386,7.00014 8.4638,10.58437 3.40411,9.19179 -0.15359,19.17184 -7.51902,23.07802 -5.85269,3.1027 -12.38226,2.0955 -17.97241,-1.35087 -0.58402,-1.00072 -1.18947,-1.97937 -1.81993,-2.93192 3.14692,1.43198 6.39564,2.39328 9.60506,2.39328 2.03603,0 4.05777,-0.38098 6.02771,-1.26556 3.57377,-1.60714 6.4135,-4.83247 7.78335,-8.85689 1.30556,-3.82509 1.21805,-8.10577 -0.25004,-12.05347 -3.34158,-8.99474 -9.55326,-11.53464 -15.88995,-11.53464 -3.58091,0 -7.20647,0.81224 -10.37482,1.72538 -2.29679,0.66562 -4.54535,1.4516 -6.72246,2.21147 -5.37762,1.87426 -10.47484,3.63467 -16.02391,3.63467 -0.091,0 -0.18217,0 -0.27326,-0.002 -3.02368,-0.0421 -13.09845,-1.0072 -15.73635,-11.82366 -0.82871,-3.40696 -0.6644,-6.39143 0.48935,-8.8744 1.01088,-2.16762 1.8235,-3.57113 3.93633,-3.98277 0.36256,-0.068 0.73226,-0.103 1.10553,-0.103 1.27519,0 2.58254,0.37661 3.75236,0.89554 2.39859,1.06632 4.61679,2.97128 7.20647,2.97128 0.28934,0 0.58045,-0.0245 0.87871,-0.0753 2.37179,-0.40288 4.28102,-2.5246 4.28102,-5.62941 0,-3.36098 -3.26658,-6.0848 -7.29578,-6.0848 -1.63417,0 -3.39337,0.29121 -4.91861,0.85831 -3.9774,1.2371 -9.1657,3.83611 -11.6768,9.23997 -1.59668,3.43327 -1.85564,7.43142 -0.76977,11.8871 0.93229,3.8186 2.73436,6.9891 5.22045,9.39552 -2.08424,-0.17517 -4.156,-0.22123 -6.19739,-0.12612 -7.10288,0.3766 -13.86999,2.03629 -19.97451,4.66377 -3.04868,1.3225 -5.95806,2.78951 -8.69777,4.42292 -2.72006,1.66618 -5.27403,3.45724 -7.64404,5.33151 -4.72394,3.78585 -8.73706,7.8693 -11.93041,11.9419 -3.2255,4.03545 -5.67409,8.00067 -7.46365,11.43829 -1.48952,2.81806 -2.52182,5.31627 -3.28622,7.2387 -0.83049,-11.00248 -5.70803,-20.15276 -12.61267,-27.1944 -0.91799,-0.93714 -6.55458,-5.21993 -6.41527,-6.67153 1.90564,-19.66896 12.24475,-10.09828 12.24475,-10.09828 5.57586,3.46163 8.27091,-4.91776 2.85758,-7.11171 -4.35067,-1.76269 -12.00721,1.53042 -14.92909,5.80235 -0.99301,1.45598 -3.84881,8.88298 -2.28072,10.81856 -4.38281,-5.41698 -8.55667,-11.74693 -9.84438,-19.37328 -1.47165,-8.7122 0.5751,-14.89556 5.01329,-21.59126 1.84671,-2.78513 3.99168,-3.80765 6.64745,-5.21774 1.86458,-0.98531 6.26882,-1.67064 5.95628,-5.25933 -0.23933,-2.80921 -3.77201,-3.68504 -5.59373,-3.59528 -2.23784,0.10511 -4.16493,1.63999 -5.84911,3.33033 -2.46824,2.47422 -4.49534,5.6469 -6.21882,8.91592 -3.38446,6.41105 -6.07058,15.26342 -6.35277,22.91814 -0.43578,11.66829 2.93974,24.94581 9.36752,33.63839 5.6473,7.63283 13.7432,12.30309 18.89399,20.47893 1.53059,2.4327 2.28249,5.50457 3.90775,7.82341 0.16431,0.23647 0.33576,0.45315 0.51972,0.65459 0.40364,0.44019 0.92871,0.81241 1.49844,1.15609 -0.0358,0.11386 -0.0607,0.19268 -0.0607,0.19268 l 3.50768,1.69473 c 0,0 0.003,-0.0175 0.006,-0.0175 0.009,0 0.0178,0.0175 0.025,0.0175 -0.006,-0.0175 -0.007,-0.0351 -0.0129,-0.0525 0.16968,-0.53864 2.07711,-6.57308 2.64506,-8.478 0.32147,-0.93714 0.70189,-2.05592 1.1984,-3.39594 0.55187,-1.32039 1.16982,-2.85081 1.98959,-4.48423 1.59489,-3.28872 3.80773,-7.11609 6.78319,-11.07482 2.96474,-3.96312 6.78855,-7.90872 11.29996,-11.60032 4.55606,-3.59528 9.83545,-6.90817 15.74529,-9.27939 5.89734,-2.36473 12.39655,-3.93246 19.12974,-3.97853 6.72604,-0.0368 13.66462,1.29851 20.0531,4.88274 3.18621,1.68824 6.20632,3.97415 8.99246,6.55118 2.75935,2.64062 5.28296,5.63595 7.44579,8.94884 4.34711,6.60374 7.32792,14.29787 8.75314,22.04894 0.67153,3.88639 1.05552,7.77944 0.94836,11.6047 -0.10902,3.81632 -0.45007,7.53859 -0.99479,11.23896 -0.55902,3.69161 -1.40915,7.35922 -2.71828,10.76618 -0.68404,1.67931 -1.39843,3.34127 -2.2825,4.85418 l -0.6251,1.16047 -0.0392,0.0718 c 0.18038,-0.26048 0.0233,-0.0333 0.05,-0.0701 l -0.0698,0.1016 -0.15003,0.21458 -0.35541,0.47522 c -0.48401,0.63707 -1.00372,1.26994 -1.53773,1.86989 -4.2971,4.87607 -9.35145,8.19773 -14.28257,9.7786 -0.90907,0.29779 -1.80564,0.50798 -2.69863,0.68315 -2.09675,-4.55657 -1.93245,-12.98641 -1.70384,-15.71461 0.21075,-2.52676 0.5608,-5.03372 0.94837,-7.52983 0.97694,-6.2513 1.6181,-10.24945 0.1233,-16.46554 -1.44844,-6.02358 -4.24888,-11.70542 -8.67455,-15.10153 1.68419,1.29413 -0.22325,9.89685 -0.47687,11.60699 -0.92692,6.24902 -1.90564,12.47387 -2.76649,18.72954 -1.21983,8.85899 2.21105,19.93154 8.61026,24.88223 -1.85564,0.0245 -3.64699,-0.1629 -5.3419,-0.50149 -16.57578,-8.81957 -11.34104,-33.90762 -11.34104,-33.90762 3.14335,-50.868 -24.51808,-40.84627 -24.51808,-40.84627 8.06732,7.56048 5.4562,17.57783 3.05226,27.43298 -3.37373,13.85786 0.22325,31.28891 7.93874,41.8864 9.2532,12.70615 25.00921,13.94106 37.94157,10.80998 3.62913,-0.8802 7.31006,-2.52238 10.8481,-4.89814 -2.21819,4.49298 -4.25244,8.92695 -5.93663,13.16366 -2.48074,6.23379 -4.91505,13.02582 -4.84896,20.09812 0.0358,3.55147 0.56615,7.02623 1.86457,10.23176 4.37389,10.73115 9.83723,23.55973 21.43546,20.00825 -3.91668,1.19778 -10.50519,-3.33024 -12.71626,-6.81831 -8.60489,-13.58179 5.27582,-31.12459 11.25531,-41.73751 1.03587,-1.84134 1.99138,-3.69598 2.85759,-5.59425 1.01444,15.46482 4.90254,36.64231 17.50985,51.82038 2.68969,3.23846 5.66516,6.03882 8.90137,8.42335 6.12774,6.0213 12.35727,11.24771 20.68355,14.2891 13.5253,4.93529 28.66336,3.87326 41.6618,-2.89251 6.15273,-3.20114 11.74645,-7.7444 16.52041,-13.44165 4.33817,-5.18051 7.84049,-13.00392 14.6594,-13.31694 0.0286,-0.002 0.0572,-0.002 0.0876,0 -17.60272,-12.25947 -40.77237,-1.01386 -55.40677,12.35353"
       style="fill:#c0a676;fill-opacity:1;fill-rule:nonzero;stroke:none"
       id="path26" />
    <path
       inkscape:connector-curvature="0"
       d="m 140.99895,595.33258 c -4.92575,3.24494 -10.43732,6.1702 -15.61741,6.1702 -1.68972,0 -3.34462,-0.31091 -4.92897,-1.02261 -2.75631,-1.23702 -4.92898,-3.68934 -5.96485,-6.72197 -0.97818,-2.86833 -0.90639,-5.96876 0.20931,-8.97057 2.31679,-6.23816 6.46226,-9.25748 13.02308,-9.25748 2.77365,0 5.97951,0.54073 9.66221,1.60276 2.22713,0.64146 4.44176,1.41656 6.58316,2.16329 4.33282,1.5108 8.78707,3.04349 13.51459,3.57337 -5.89913,2.96678 -11.52857,7.11609 -16.48112,12.46301 z m -49.371913,81.31384 c -2.28981,-3.57338 -2.505386,-7.67873 -1.168565,-8.96847 0.555257,-0.53425 1.167137,-0.80576 1.820095,-0.80576 0.886752,0 1.827254,0.51464 2.583442,1.41236 1.395215,1.64655 1.863502,4.04842 2.4034,6.82707 0.236465,1.21074 0.477931,2.46545 0.815481,3.7135 0.39846,1.48453 0.76333,2.84643 1.21823,4.08346 -2.935808,-0.69191 -5.402617,-2.71717 -7.672083,-6.26216 z M 166.719,552.43675 c -0.83942,0.37223 -1.62347,0.81452 -2.37894,1.24368 -1.4663,0.82765 -2.73256,1.54364 -3.97204,1.54364 -0.1786,0 -0.3572,-0.0123 -0.53223,-0.0437 -1.02337,-0.17736 -2.11282,-0.93933 -2.11282,-2.57712 0,-1.22396 1.86278,-3.00409 4.7811,-3.00409 1.42164,0 2.94687,0.26494 4.19171,0.72694 l 0.0536,0.0198 0.0536,0.0157 c 0.92693,0.29121 1.93244,0.65906 2.94688,1.13639 -0.97514,0.1664 -1.98959,0.47732 -3.03082,0.93932 z m 110.50278,16.04509 c -0.28397,-7.65472 -2.96831,-16.50708 -6.35277,-22.91813 -1.72526,-3.26903 -3.74879,-6.4417 -6.21881,-8.91592 -1.68597,-1.69034 -3.61128,-3.22523 -5.8509,-3.33033 -1.81993,-0.0897 -5.35083,0.78605 -5.59551,3.59527 -0.30719,3.5887 4.09528,4.27403 5.95806,5.25934 2.65756,1.41007 4.80253,2.43261 6.64925,5.21774 4.43639,6.69569 6.48671,12.87906 5.01149,21.59126 -1.28593,7.62635 -5.458,13.95629 -9.8426,19.37328 1.56452,-1.93558 -1.28591,-9.36259 -2.28071,-10.81856 -2.92367,-4.27193 -10.57842,-7.56504 -14.92731,-5.80235 -5.41512,2.19394 -2.72185,10.57332 2.85581,7.11171 9.7e-4,0 10.33731,-9.57068 12.24653,10.09828 0.13931,1.45159 -5.49906,5.73438 -6.41707,6.67152 -6.90285,7.04165 -11.78396,16.19193 -12.61265,27.19231 -0.7662,-1.92033 -1.79671,-4.41854 -3.28444,-7.23661 -1.79492,-3.43761 -4.24173,-7.40283 -7.46723,-11.43828 -3.19335,-4.0726 -7.20647,-8.15605 -11.92863,-11.9419 -2.37001,-1.87427 -4.92576,-3.66533 -7.64582,-5.33151 -2.73793,-1.63341 -5.64909,-3.10042 -8.69599,-4.42292 -6.10451,-2.62748 -12.87341,-4.28717 -19.97629,-4.66378 -2.04139,-0.0946 -4.11315,-0.049 -6.19739,0.12612 2.48788,-2.40643 4.28816,-5.57691 5.22045,-9.39552 1.08767,-4.45568 0.82691,-8.45383 -0.76977,-11.8871 -2.51289,-5.40385 -7.69762,-8.00286 -11.6768,-9.23997 -1.52345,-0.56709 -3.28444,-0.85831 -4.91861,-0.85831 -4.03099,0 -7.29756,2.72382 -7.29756,6.0848 0,3.10482 1.91101,5.22653 4.28459,5.62942 0.29647,0.0508 0.58938,0.0753 0.87692,0.0753 2.58968,0 4.81146,-1.90496 7.20825,-2.97126 1.16805,-0.51894 2.47717,-0.89554 3.75237,-0.89554 0.37148,0 0.74119,0.035 1.10553,0.103 2.11104,0.41164 2.92724,1.81515 3.93632,3.98277 1.15375,2.48297 1.31806,5.46742 0.48936,8.87439 -2.63969,10.81647 -12.71268,11.78197 -15.73814,11.82366 -0.091,0.002 -0.18396,0.002 -0.26969,0.002 -5.55264,0 -10.64807,-1.76042 -16.02569,-3.63469 -2.17534,-0.75986 -4.42747,-1.54583 -6.72425,-2.21146 -3.16656,-0.91313 -6.79212,-1.72537 -10.37303,-1.72537 -6.33884,0 -12.5514,2.5399 -15.89318,11.53463 -1.46575,3.94771 -1.5529,8.22839 -0.24842,12.05348 1.37165,4.02442 4.20833,7.24973 7.78371,8.85688 1.97173,0.88458 3.99061,1.26557 6.02771,1.26557 3.21067,0 6.4576,-0.96131 9.6063,-2.39328 -0.63224,0.95255 -1.23769,1.93119 -1.82171,2.93192 -5.59193,3.44637 -12.12044,4.45357 -17.97027,1.35087 -7.36507,-3.90619 -10.92527,-13.88623 -7.52134,-23.07803 1.32628,-3.58424 5.13044,-9.42827 8.46327,-10.58437 -4.94022,1.71452 -10.79828,4.72071 -14.57119,9.11087 -7.464178,8.68593 -6.168621,23.52243 0.23932,32.29383 6.14489,8.40794 14.69675,8.17812 21.99055,3.75292 -4.19279,8.75178 -4.09314,19.22439 -3.99115,29.4628 0.0404,4.04422 0.0823,8.22629 -0.13173,12.29222 -0.60706,11.50627 -3.11853,18.90034 -7.07002,23.30137 -1.36879,1.52394 -6.18401,2.88585 -8.71099,1.57439 -2.35448,-1.22178 -2.73471,-4.88712 -3.44072,-7.51687 -1.09196,-4.06384 -1.19519,-8.65106 -3.859525,-11.79966 -1.218046,-1.44284 -2.768286,-2.27487 -4.331026,-2.27487 -1.161609,0 -2.328746,0.45753 -3.373736,1.46262 -2.65541,2.5618 -2.323216,8.51305 0.742972,13.29944 2.330188,3.63678 4.950408,5.95999 7.98249,7.02623 3.287295,2.03192 6.346505,3.06539 9.151775,3.06539 2.15443,0 4.16153,-0.60204 6.00968,-1.80193 5.69837,-3.70703 9.35608,-13.21412 10.03494,-26.08439 0.22183,-4.2192 0.18145,-8.47362 0.13817,-12.5921 -0.1123,-11.34423 -0.20861,-21.53886 4.68018,-29.60084 -0.27451,0.9021 -0.54598,1.81085 -0.77834,2.73485 -3.9724,15.8656 -2.46198,38.38521 1.09803,54.30773 0.084,0.36137 0.17859,0.70942 0.26433,1.06641 0,0.57804 -0.003,1.17798 -0.01,1.79754 -7.44972,19.84886 -32.176044,15.3077 -42.860551,33.21397 22.459541,10.22527 37.107521,-5.02934 42.758751,-29.41674 -0.5858,14.9043 -3.76825,37.59696 -16.54649,52.96123 -12.18169,14.6482 -29.956583,21.9328 -44.449536,8.69468 -14.63479,-13.36738 -37.803012,-24.61298 -55.40556,-12.3537 0.02786,0.002 0.05787,0.002 0.08516,0 6.820154,0.3132 10.321052,8.13643 14.66048,13.31695 4.774666,5.69725 10.368387,10.24069 16.521123,13.44183 12.998608,6.76576 28.137561,7.82761 41.660179,2.89233 8.327186,-3.04122 14.555104,-8.2678 20.685514,-14.28911 3.23568,-2.38435 6.209,-5.18489 8.89996,-8.42317 12.60783,-15.17808 16.49664,-36.35556 17.5093,-51.82055 0.86621,1.89844 1.82171,3.75292 2.85937,5.59443 5.9795,10.61273 19.86021,28.15555 11.25531,41.73751 -2.21106,3.48789 -8.80136,8.01591 -12.71804,6.81831 11.59823,3.55147 17.06157,-9.27728 21.43546,-20.00826 1.3002,-3.20553 1.83064,-6.68045 1.86457,-10.23193 0.0679,-7.0723 -2.36644,-13.86433 -4.84717,-20.09794 -1.68598,-4.2369 -3.72022,-8.67068 -5.93663,-13.16368 3.53625,2.3756 7.21897,4.01777 10.84631,4.89798 12.93414,3.13108 28.69194,1.89616 37.94158,-10.8098 7.71726,-10.59751 11.31246,-28.02873 7.93873,-41.8864 -2.40037,-9.85533 -5.01327,-19.8725 3.05225,-27.43317 0,0 -27.66141,-10.02156 -24.51807,40.84645 0,0 5.23474,25.08805 -11.33926,33.90762 -1.6949,0.3393 -3.48625,0.5255 -5.34189,0.50132 6.39921,-4.95052 9.83009,-16.02324 8.60847,-24.88223 -0.85906,-6.25549 -1.83778,-12.48052 -2.7665,-18.72954 -0.25182,-1.70997 -2.15926,-10.31286 -0.47685,-11.60681 -4.4239,3.39593 -7.22612,9.07794 -8.67277,15.10136 -1.49488,6.21626 -0.8537,10.21441 0.11959,16.46553 0.39112,2.4961 0.74118,5.00325 0.95193,7.53 0.23039,2.72821 0.39292,11.15803 -1.70383,15.71444 -0.89479,-0.17517 -1.79135,-0.38537 -2.69864,-0.68315 -4.93104,-1.57999 -9.98539,-4.90147 -14.28428,-9.77773 -0.53579,-0.59994 -1.05194,-1.23263 -1.53773,-1.86988 l -0.35184,-0.47506 -0.15181,-0.21457 -0.0697,-0.1016 c 0.025,0.0368 -0.13045,-0.19058 0.05,0.0701 l -0.0392,-0.0718 -0.62688,-1.16047 c -0.88586,-1.51307 -1.59489,-3.17487 -2.28072,-4.85435 -1.31091,-3.40697 -2.15926,-7.07441 -2.71827,-10.76602 -0.54651,-3.70037 -0.88764,-7.42262 -0.9948,-11.23913 -0.10901,-3.82508 0.27505,-7.71813 0.94658,-11.6047 1.42522,-7.75106 4.40783,-15.4452 8.75492,-22.04893 2.16283,-3.31273 4.68466,-6.30806 7.44401,-8.94867 2.78793,-2.5772 5.80625,-4.86311 8.99425,-6.55119 6.39027,-3.5844 13.32705,-4.92004 20.05131,-4.88272 6.73497,0.0456 13.23419,1.61362 19.12974,3.97835 5.91341,2.37139 11.18923,5.68412 15.74529,9.27938 4.51141,3.69161 8.33522,7.63721 11.29996,11.60032 2.97546,3.95874 5.18652,7.7861 6.78498,11.07483 0.81976,1.63342 1.43593,3.16401 1.9878,4.48423 0.49829,1.34002 0.87871,2.45897 1.20019,3.39611 0.56616,1.90492 2.47538,7.93937 2.64505,8.47799 -0.006,0.0175 -0.007,0.0368 -0.0129,0.0525 0.007,-0.002 0.016,0 0.025,-0.0175 l 0.006,0.0175 3.5059,-1.69472 c 0,0 -0.0233,-0.0789 -0.0607,-0.19269 0.56973,-0.34385 1.0948,-0.7138 1.49844,-1.15609 0.18574,-0.20144 0.35898,-0.41829 0.52151,-0.65477 1.62347,-2.31866 2.37537,-5.39071 3.90775,-7.82323 5.15079,-8.17584 13.24669,-12.84627 18.8922,-20.4791 6.42956,-8.69258 9.80508,-21.9701 9.3693,-33.63822"
       style="fill:#c0a676;fill-opacity:1;fill-rule:nonzero;stroke:none"
       id="path28" />
    <path
       inkscape:connector-curvature="0"
       d="m 279.48821,545.16521 c 2.05567,-1.43636 3.88095,-3.50769 5.40618,-5.70164 3.18443,-4.58933 5.44906,-10.63691 4.9597,-16.76551 -0.76976,-9.62751 -6.38313,-16.45678 -10.11584,-24.47934 -0.56617,-1.21521 -1.45201,-2.89462 -1.45201,-4.366 0,1.47138 -0.88942,3.15079 -1.4538,4.366 -3.73093,8.02256 -9.34609,14.85183 -10.11764,24.47934 -0.48757,6.1286 1.77885,12.17618 4.96327,16.76551 1.52166,2.19395 3.35051,4.26528 5.4062,5.70164 l 2.40394,0"
       style="fill:#c0a676;fill-opacity:1;fill-rule:nonzero;stroke:none"
       id="path30" />
    <path
       inkscape:connector-curvature="0"
       d="m 278.28444,625.26168 c -66.77816,0 -120.9151,66.37012 -120.9151,148.23801 0,81.87016 54.13694,148.24029 120.9151,148.24029 66.78175,0 120.91512,-66.37013 120.91512,-148.24029 0,-81.86789 -54.13337,-148.23801 -120.91512,-148.23801 l 0,0 z m 0,5.39508 c 64.24922,0 116.51622,64.07985 116.51622,142.84293 0,78.76535 -52.267,142.8452 -116.51622,142.8452 -64.24563,0 -116.5162,-64.07985 -116.5162,-142.8452 0,-78.76308 52.27057,-142.84293 116.5162,-142.84293"
       style="fill:#c0a676;fill-opacity:1;fill-rule:nonzero;stroke:none"
       id="path32" />
    <path
       inkscape:connector-curvature="0"
       d="m 278.28444,700.6572 c -32.7622,0 -59.41632,32.67709 -59.41632,72.84249 0,40.16541 26.65412,72.84477 59.41632,72.84477 32.76221,0 59.41812,-32.67936 59.41812,-72.84477 0,-40.1654 -26.65591,-72.84249 -59.41812,-72.84249 z m 0,150.38817 c -34.87681,0 -63.25083,-34.78783 -63.25083,-77.54568 0,-42.75785 28.37402,-77.5434 63.25083,-77.5434 34.87861,0 63.25264,34.78555 63.25264,77.5434 0,42.75785 -28.37403,77.54568 -63.25264,77.54568"
       style="fill:#c0a676;fill-opacity:1;fill-rule:nonzero;stroke:none"
       id="path34" />
    <g
       id="g36"
       transform="matrix(1.7859902,0,0,-2.1895662,-51.195025,2068.3522)">
      <text
         transform="matrix(1,0,0,-1,159.867,572.413)"
         id="text38">
        <tspan
           style="font-size:53px;font-variant:normal;font-weight:normal;writing-mode:lr-tb;fill:#c0a676;fill-opacity:1;fill-rule:nonzero;stroke:none;font-family:Chivo;-inkscape-font-specification:Chivo-Regular"
           x="0"
           y="0"
           id="tspan40">M</tspan>
      </text>
    </g>
    <path
       inkscape:connector-curvature="0"
       d="m 214.34422,717.72058 c -4.11136,-3.72892 -8.22092,-7.45766 -12.33048,-11.18659 -0.05,0.0858 -0.10173,0.17342 -0.1536,0.25837 2.11283,7.13589 4.665,13.91478 7.60653,20.25139 -0.51436,1.11668 -1.01622,2.25087 -1.5038,3.40469 -5.8902,0.34385 -11.92327,1.45177 -18.01886,3.40924 -0.0286,0.0929 -0.0572,0.18164 -0.0857,0.27151 4.74717,2.28152 9.49611,4.56305 14.24327,6.84458 -0.42685,1.35525 -0.83584,2.7303 -1.22697,4.12725 -5.79554,-2.43253 -11.59108,-4.86522 -17.38662,-7.29774 0.82691,-2.96029 1.72169,-5.84177 2.68256,-8.64441 5.8134,-1.68824 11.5625,-2.63624 17.17944,-2.91212 0.025,-0.0578 0.05,-0.11386 0.075,-0.17166 -2.79865,-6.06948 -5.2526,-12.53098 -7.31899,-19.31635 1.3002,-2.3276 2.65756,-4.5762 4.06313,-6.74825 4.77574,4.7426 9.55148,9.48293 14.329,14.22552 -0.73583,1.1342 -1.45379,2.29695 -2.1539,3.48369"
       style="fill:#c0a676;fill-opacity:1;fill-rule:nonzero;stroke:none"
       id="path42" />
    <path
       inkscape:connector-curvature="0"
       d="m 226.28177,685.35003 c -1.72348,-2.96467 -4.03455,-3.78147 -6.90642,-2.13702 -0.90371,0.51236 -1.78778,1.20864 -2.6397,2.09323 -0.87335,0.9042 -1.58953,1.85885 -2.14319,2.84416 -0.55186,0.9853 -0.90907,1.97498 -1.0698,2.95381 -0.37506,2.1435 0.18396,4.08573 1.59846,5.83073 0.56794,0.70293 1.13589,1.4057 1.70383,2.10863 2.10926,2.58808 4.36853,2.96468 6.81891,1.42095 0.76262,-0.46191 1.51095,-1.08165 2.25929,-1.85675 0.72867,-0.75531 1.34484,-1.54583 1.85206,-2.38663 0.50722,-0.8429 0.85192,-1.69683 1.03231,-2.57931 0.41613,-1.91579 0.0786,-3.87991 -1.09303,-5.88328 -0.4715,-0.80138 -0.943,-1.60714 -1.41272,-2.40852 z m 4.4757,-0.15064 c 1.477,2.76323 1.75383,5.55922 1.01086,8.39917 -0.7126,2.66251 -2.14318,4.99869 -4.32031,7.25395 -2.17533,2.25753 -4.32209,3.6303 -6.61173,4.09449 -2.44145,0.47732 -4.67215,-0.27799 -6.65103,-2.51801 -0.59116,-0.67438 -1.18233,-1.34649 -1.77349,-2.01878 -1.97352,-2.23107 -2.74685,-5.0141 -2.13247,-8.3531 0.5858,-3.11146 2.22535,-6.20751 4.91148,-8.99474 2.68612,-2.78302 5.40797,-4.21062 7.95837,-4.36827 2.73613,-0.14889 4.80609,1.27433 6.27953,4.02669 0.44293,0.82539 0.88586,1.65304 1.32879,2.4786"
       style="fill:#c0a676;fill-opacity:1;fill-rule:nonzero;stroke:none"
       id="path44" />
    <path
       inkscape:connector-curvature="0"
       d="m 252.8966,682.82099 c -5.08114,-3.68057 -10.67487,-6.80517 -16.70258,-9.22682 -0.0303,0.0297 -0.0624,0.0613 -0.0929,0.0946 2.07531,4.87836 4.15421,9.75671 6.23132,14.63506 -0.90193,0.56491 -1.79492,1.15171 -2.68077,1.76041 -3.04333,-6.5489 -6.08844,-13.09798 -9.13356,-19.64478 1.04837,-0.72029 2.10569,-1.41446 3.17013,-2.08658 6.17596,2.23984 11.93221,5.19138 17.19552,8.70572 0.0304,-0.0263 0.0626,-0.0508 0.0929,-0.0753 -1.49309,-5.11273 -2.98439,-10.22528 -4.4757,-15.338 1.1609,-0.49485 2.33251,-0.96341 3.5077,-1.40571 1.85385,7.17093 3.70771,14.34395 5.56157,21.51469 -0.89657,0.33719 -1.786,0.69189 -2.67363,1.0664"
       style="fill:#c0a676;fill-opacity:1;fill-rule:nonzero;stroke:none"
       id="path46" />
    <path
       inkscape:connector-curvature="0"
       d="m 275.73049,664.61921 c -0.13574,-3.62153 -1.68598,-5.82862 -4.73824,-6.37391 -0.95908,-0.17726 -1.97888,-0.1904 -3.05047,-0.028 -1.09839,0.16466 -2.08604,0.47295 -2.95403,0.91314 -0.86799,0.43792 -1.57703,1.01158 -2.11997,1.70996 -1.21269,1.51081 -1.57882,3.48579 -1.17161,5.88556 0.16252,0.96569 0.32505,1.9312 0.48757,2.89689 0.61081,3.5667 2.27536,5.43012 4.91863,5.8132 0.81619,0.13488 1.68776,0.12963 2.62718,-0.0175 0.918,-0.13839 1.75921,-0.38309 2.53254,-0.74656 0.77512,-0.36137 1.42522,-0.84745 1.95387,-1.46263 1.16447,-1.32477 1.73241,-3.19239 1.63597,-5.6447 -0.0412,-0.98321 -0.0804,-1.96623 -0.12144,-2.95154 z m 3.74879,2.82455 c 0.0214,3.28873 -0.96265,5.82197 -2.80044,7.70937 -1.7324,1.75831 -3.91131,2.76324 -6.64745,3.17277 -2.73613,0.41164 -5.05435,0.0788 -7.09753,-1.1102 -2.17176,-1.28518 -3.64699,-3.44638 -4.29888,-6.64087 -0.19467,-0.95692 -0.38934,-1.91367 -0.58401,-2.8706 -0.65011,-3.18363 -0.11074,-5.9819 1.79313,-8.29846 1.7842,-2.14787 4.42033,-3.58212 7.79763,-4.09011 3.37553,-0.5057 6.2224,0.10685 8.38701,1.65969 2.31286,1.68387 3.40589,4.23462 3.42732,7.51249 0.007,0.98741 0.0162,1.97061 0.0233,2.95592"
       style="fill:#c0a676;fill-opacity:1;fill-rule:nonzero;stroke:none"
       id="path48" />
    <path
       inkscape:connector-curvature="0"
       d="m 302.77395,676.55883 c -0.38935,1.75604 -0.62332,3.13109 -0.70547,4.12515 -0.63224,-0.20582 -1.26448,-0.40288 -1.9003,-0.58891 -0.10358,-0.86496 -0.1518,-1.8021 -0.14466,-2.8114 -1.83242,1.55231 -4.0792,1.98374 -6.89035,1.45597 -2.83615,-0.5276 -5.00255,-1.60276 -6.60281,-3.41135 -1.72169,-1.92454 -2.60397,-4.49298 -2.4986,-7.79923 0.034,-0.9853 0.066,-1.9706 0.10002,-2.95363 0.1053,-3.27788 1.2234,-5.78712 3.49518,-7.39426 2.11997,-1.48224 4.99542,-2.00126 8.46917,-1.35315 3.11477,0.58242 5.52407,1.89179 7.14932,3.74206 1.78599,2.05819 2.32714,4.39665 1.76098,6.92778 -1.22518,-0.39202 -2.45395,-0.75759 -3.68985,-1.0904 0.32862,-1.75166 -0.0322,-3.25808 -1.1341,-4.49299 -0.96444,-1.06203 -2.45932,-1.82399 -4.45963,-2.19833 -3.53269,-0.65249 -5.94555,0.41813 -7.10824,2.90775 -0.43042,0.87793 -0.68046,1.95309 -0.7644,3.21867 -0.0643,0.98302 -0.13044,1.96395 -0.19467,2.94715 -0.23039,3.6303 0.91264,5.97086 3.32194,7.20578 0.7519,0.3985 1.5931,0.68103 2.52896,0.8562 1.96102,0.36784 3.46304,0.24961 4.55428,-0.44019 1.08588,-0.68753 1.83957,-2.0384 2.22713,-4.09011 0.025,-0.13838 0.0517,-0.27798 0.0786,-0.41602 -2.32536,-0.6306 -4.67037,-1.15171 -7.0243,-1.55897 0.11431,-0.95237 0.22861,-1.90702 0.34291,-2.86168 3.61306,0.62622 7.20112,1.50853 10.73737,2.64711 -0.55008,2.47648 -1.09838,4.95069 -1.64846,7.427"
       style="fill:#c0a676;fill-opacity:1;fill-rule:nonzero;stroke:none"
       id="path50" />
    <path
       inkscape:connector-curvature="0"
       d="m 320.95354,675.52325 c 1.01623,0.59329 2.01281,0.85394 3.01476,0.77073 0.97692,-0.0964 1.6556,-0.54529 2.0253,-1.37505 0.0178,-0.0403 0.0338,-0.0788 0.0517,-0.1156 0.36791,-0.82766 0.33219,-1.75393 -0.13217,-2.76551 -0.46257,-1.01368 -1.30913,-1.89827 -2.53432,-2.61434 -2.38787,-1.39467 -4.8186,-2.6669 -7.28326,-3.81633 -0.67154,2.10636 -1.34307,4.21044 -2.0146,6.31471 2.32536,1.08374 4.61679,2.28363 6.87249,3.60175 z m 2.79507,16.38672 c -0.53579,-0.17166 -1.03766,-0.42267 -1.50915,-0.75987 -0.39292,-0.28464 -0.77156,-0.62621 -1.13411,-1.02681 -0.62867,-0.68105 -0.89479,-1.59401 -0.8037,-2.75238 0.0286,-0.60432 0.23754,-1.35087 0.62689,-2.24211 0.39113,-0.89107 0.61081,-1.74727 0.65367,-2.57703 0.0428,-0.82766 -0.0481,-1.57001 -0.27147,-2.22688 -0.38756,-1.12544 -1.09838,-1.99461 -2.1164,-2.57493 -1.96637,-1.12544 -3.96311,-2.15663 -5.98485,-3.09815 -0.98409,3.08729 -1.96817,6.1723 -2.95404,9.25748 -1.03587,-0.4817 -2.07888,-0.9394 -3.12904,-1.37066 2.00209,-7.11171 4.00597,-14.2257 6.00985,-21.33741 3.82916,1.57001 7.58867,3.42448 11.25174,5.56377 3.54519,2.07571 5.46334,4.62437 5.78125,7.23205 0.10901,0.89124 -0.003,1.66407 -0.32683,2.32532 -0.33042,0.67877 -0.73048,1.1934 -1.19305,1.54811 -0.46257,0.35681 -0.98944,0.61518 -1.57882,0.78824 -1.21982,0.3612 -2.43966,0.26276 -3.69343,-0.29129 -0.0214,0.049 -0.0428,0.0963 -0.0643,0.14714 1.2752,1.43197 1.88779,3.12231 1.85208,4.99658 -0.0178,0.87583 -0.23218,1.72766 -0.63224,2.5597 -0.41078,0.85165 -0.68583,1.52166 -0.82513,2.00564 -0.13931,0.48608 -0.21432,0.90421 -0.22147,1.25681 0.0114,0.64373 0.23039,1.23929 0.65903,1.79316 -0.13387,0.26065 -0.26432,0.5234 -0.39649,0.78387"
       style="fill:#c0a676;fill-opacity:1;fill-rule:nonzero;stroke:none"
       id="path52" />
    <path
       inkscape:connector-curvature="0"
       d="m 343.63204,686.64836 c -3.25407,1.36419 -6.41349,2.91002 -9.46753,4.61788 2.56647,2.39538 5.04006,4.98783 7.40293,7.77506 0.89478,-3.98063 1.64668,-8.05095 2.25213,-12.19589 -0.0626,-0.0665 -0.12502,-0.13137 -0.18753,-0.19705 z m -2.81829,15.59409 c -2.87722,-3.50103 -5.9277,-6.69342 -9.12284,-9.57927 -1.35021,0.81452 -2.67898,1.6618 -3.98632,2.5399 -0.89479,-0.76635 -1.80207,-1.5087 -2.72007,-2.22688 5.9277,-4.30678 12.35369,-7.96126 19.20118,-10.83398 1.18769,1.19113 2.35572,2.42395 3.50233,3.69389 -1.26627,8.76265 -3.18443,17.18582 -5.69731,25.13622 -0.83049,-1.1736 -1.68062,-2.31656 -2.54682,-3.42886 0.48579,-1.74517 0.94121,-3.51434 1.36985,-5.30102"
       style="fill:#c0a676;fill-opacity:1;fill-rule:nonzero;stroke:none"
       id="path54" />
    <path
       inkscape:connector-curvature="0"
       d="m 356.46617,740.56424 c 4.74001,-2.30553 9.48003,-4.61333 14.22006,-6.92114 -0.0358,-0.10685 -0.0698,-0.21685 -0.10545,-0.32405 -6.10273,-1.9312 -12.14474,-3.01284 -18.04029,-3.32604 -0.49114,-1.14944 -0.9948,-2.27925 -1.51452,-3.38945 2.92546,-6.3387 5.45978,-13.11322 7.55653,-20.24245 -0.041,-0.0718 -0.0839,-0.14364 -0.12674,-0.21458 -4.09884,3.74853 -8.1959,7.49917 -12.29476,11.24772 -0.63938,-1.0729 -1.29305,-2.12599 -1.96101,-3.15736 4.77752,-4.7426 9.55326,-9.48292 14.329,-14.22552 1.41629,2.18519 2.779,4.45129 4.08992,6.79413 -2.0789,6.77014 -4.53999,13.21622 -7.34578,19.27046 0.025,0.0578 0.05,0.11386 0.075,0.17167 5.62409,0.29112 11.37854,1.25453 17.1973,2.96677 0.95372,2.78513 1.84314,5.64908 2.66469,8.58976 -5.79553,2.43251 -11.59107,4.86521 -17.38661,7.29773 -0.43042,-1.53707 -0.88228,-3.04998 -1.35735,-4.53678"
       style="fill:#c0a676;fill-opacity:1;fill-rule:nonzero;stroke:none"
       id="path56" />
    <path
       inkscape:connector-curvature="0"
       d="m 197.74522,853.61154 c 4.10957,-3.72874 8.21913,-7.45767 12.3287,-11.18869 -0.0448,-0.0753 -0.0893,-0.15064 -0.13389,-0.2277 -5.87055,0.72693 -11.95185,0.75758 -18.1653,0.002 -0.63225,-1.3663 -1.24662,-2.75448 -1.84315,-4.16894 2.81294,-6.95406 6.02772,-13.48107 9.59077,-19.4959 -0.025,-0.0788 -0.05,-0.15764 -0.0768,-0.23647 -4.74717,2.28153 -9.49433,4.56306 -14.2415,6.84458 -0.52329,-1.65741 -1.02336,-3.34128 -1.50201,-5.05124 5.79554,-2.43479 11.59107,-4.86521 17.38661,-7.30001 0.6751,2.41939 1.40736,4.77326 2.19141,7.05916 -3.30586,5.61615 -6.30276,11.67687 -8.94423,18.11419 0.0286,0.0648 0.0572,0.12963 0.0857,0.19496 5.79733,0.66335 11.47499,0.63498 16.97226,-0.0175 1.06267,1.90054 2.16998,3.7375 3.31837,5.51105 -4.77752,4.74259 -9.55326,9.4831 -14.32899,14.2257 -0.90192,-1.39046 -1.78064,-2.81368 -2.63791,-4.26965"
       style="fill:#c0a676;fill-opacity:1;fill-rule:nonzero;stroke:none"
       id="path58" />
    <path
       inkscape:connector-curvature="0"
       d="m 225.9085,870.13191 c 1.73063,-2.9801 1.69312,-5.74771 0.066,-8.43421 -0.51079,-0.85832 -1.12874,-1.65969 -1.85742,-2.41519 -0.74834,-0.7751 -1.49489,-1.39693 -2.25036,-1.8676 -0.75726,-0.46858 -1.50558,-0.74883 -2.25035,-0.82994 -1.62703,-0.20354 -3.1612,0.51674 -4.57749,2.26402 -0.56794,0.70293 -1.13589,1.40569 -1.70383,2.10863 -2.10033,2.57266 -2.34144,5.54836 -0.51972,8.77141 0.5483,0.99178 1.2609,1.95082 2.13425,2.85729 0.85192,0.88248 1.72706,1.58087 2.61648,2.09112 0.88764,0.51008 1.73956,0.77284 2.54325,0.797 1.76456,0.0788 3.21657,-0.93275 4.38639,-2.93191 0.46972,-0.80348 0.94122,-1.60714 1.41272,-2.41062 z m 1.7342,5.04038 c -1.47344,2.75009 -3.54341,4.17541 -6.27954,4.02652 -2.5504,-0.15765 -5.27225,-1.58734 -7.95838,-4.37038 -2.68613,-2.78512 -4.32567,-5.88327 -4.91147,-8.99245 -0.61438,-3.34128 0.15896,-6.12431 2.13247,-8.35539 0.59116,-0.67228 1.18232,-1.3444 1.77349,-2.01668 1.97888,-2.23984 4.20958,-2.99532 6.65102,-2.5201 2.28964,0.46419 4.4364,1.83923 6.61175,4.09659 2.17711,2.25525 3.60769,4.59161 4.3203,7.25184 0.74297,2.84206 0.46614,5.63822 -1.01087,8.39918 -0.44292,0.82766 -0.88585,1.65322 -1.32877,2.48087"
       style="fill:#c0a676;fill-opacity:1;fill-rule:nonzero;stroke:none"
       id="path60" />
    <path
       inkscape:connector-curvature="0"
       d="m 244.95073,896.34539 c -2.87902,-7.03727 -5.07579,-14.20152 -6.59745,-21.34179 -0.0358,-0.0175 -0.0714,-0.0193 -0.10716,-0.0316 -2.07889,4.87835 -4.156,9.75671 -6.2331,14.63506 -1.10196,-0.6919 -2.19678,-1.41008 -3.28087,-2.15452 3.04512,-6.54891 6.09022,-13.09799 9.13356,-19.64479 0.85549,0.58679 1.7199,1.15609 2.58968,1.70138 1.29663,6.94092 3.24872,13.92125 5.86519,20.80087 0.0412,0 0.0804,0.0175 0.12145,0.0175 1.4913,-5.11272 2.98439,-10.22317 4.47569,-15.33572 0.95014,0.40288 1.90565,0.78386 2.86651,1.14506 -1.85386,7.17302 -3.70771,14.34393 -5.56157,21.51467 -1.0966,-0.41163 -2.18784,-0.84727 -3.27193,-1.30498"
       style="fill:#c0a676;fill-opacity:1;fill-rule:nonzero;stroke:none"
       id="path62" />
    <path
       inkscape:connector-curvature="0"
       d="m 274.06594,890.31971 c 0.13745,-3.63906 -1.08945,-5.93373 -3.57377,-7.08772 -0.78583,-0.37432 -1.63061,-0.62622 -2.5486,-0.76407 -0.93943,-0.14013 -1.811,-0.15239 -2.62541,-0.028 -0.81262,0.12438 -1.53774,0.40289 -2.17534,0.8429 -1.40379,0.93941 -2.33785,2.58159 -2.74506,4.98573 -0.16252,0.96551 -0.32506,1.9312 -0.48758,2.89671 -0.60902,3.55147 0.4465,6.15268 3.29515,7.58256 0.86442,0.44877 1.85207,0.76196 2.95045,0.92609 1.07161,0.16116 2.08426,0.1559 3.02905,-0.0175 0.94657,-0.16815 1.75563,-0.51446 2.42537,-1.0291 1.4788,-1.10353 2.23784,-2.91211 2.33429,-5.36005 0.0412,-0.98303 0.0804,-1.96623 0.12145,-2.95154 z m 3.60413,3.08291 c -0.0214,3.27997 -1.11446,5.83072 -3.42732,7.51231 -2.16462,1.55459 -5.01149,2.16557 -8.38701,1.65969 -3.3773,-0.5057 -6.01343,-1.93996 -7.79763,-4.08783 -1.90386,-2.31656 -2.44324,-5.11483 -1.79313,-8.30073 0.19467,-0.95676 0.38934,-1.91369 0.58402,-2.87044 0.65188,-3.19466 2.12711,-5.35568 4.29887,-6.64104 2.04139,-1.18885 4.36139,-1.51956 7.09752,-1.10792 2.73615,0.40726 4.91505,1.41446 6.64746,3.17276 1.83779,1.88513 2.82186,4.42065 2.80043,7.70938 -0.007,0.9832 -0.0162,1.96851 -0.0233,2.95382"
       style="fill:#c0a676;fill-opacity:1;fill-rule:nonzero;stroke:none"
       id="path64" />
    <path
       inkscape:connector-curvature="0"
       d="m 304.017,894.9791 c 0.38756,1.75604 0.76618,3.08501 1.13946,3.98501 -0.77333,0.25172 -1.54846,0.49046 -2.32536,0.72028 -0.48222,-0.6919 -0.92158,-1.4889 -1.32163,-2.38873 -1.29307,2.4348 -3.72736,4.11639 -7.19933,4.76888 -3.50233,0.65249 -6.3742,0.13137 -8.46917,-1.35315 -2.27177,-1.58525 -3.3898,-4.09677 -3.49518,-7.39426 -0.034,-0.9853 -0.066,-1.96833 -0.10002,-2.95364 -0.10544,-3.28434 0.77691,-5.8528 2.49861,-7.79922 1.62167,-1.81297 3.78808,-2.88814 6.6028,-3.41362 2.52539,-0.47067 4.65608,-0.32179 6.50279,0.55614 2.02174,0.97883 3.36659,2.67128 3.93453,5.21345 -1.15374,0.37222 -2.31107,0.71379 -3.47553,1.02909 -0.32863,-1.75165 -1.13946,-2.92964 -2.39501,-3.58003 -1.09838,-0.55825 -2.48253,-0.65021 -4.1935,-0.32844 -3.00583,0.55406 -4.83825,2.04296 -5.56872,4.73823 -0.26969,0.95027 -0.36613,2.05819 -0.28219,3.32376 0.0643,0.9832 0.13045,1.96413 0.19467,2.94716 0.22861,3.61506 1.811,5.76522 4.82218,6.20751 0.93585,0.14714 1.95565,0.12262 3.05047,-0.0824 2.29321,-0.42915 3.90238,-1.29621 4.80073,-2.48296 0.90015,-1.18674 1.1359,-2.81806 0.75012,-4.86749 -0.0268,-0.13838 -0.0536,-0.27588 -0.0786,-0.41602 -2.42181,0.65687 -4.86325,1.19778 -7.31542,1.62466 -0.1143,-0.95465 -0.2286,-1.90703 -0.34291,-2.86168 3.57377,-0.61974 7.12075,-1.49328 10.61771,-2.61871 0.5483,2.4763 1.09839,4.95279 1.64848,7.427"
       style="fill:#c0a676;fill-opacity:1;fill-rule:nonzero;stroke:none"
       id="path66" />
    <path
       inkscape:connector-curvature="0"
       d="m 318.03523,879.52514 c 0.98945,-0.57805 1.7342,-1.39045 2.21641,-2.41517 0.459,-1.00931 0.49294,-1.9312 0.12331,-2.76096 -0.0162,-0.0403 -0.034,-0.077 -0.05,-0.11561 -0.36971,-0.82993 -0.99301,-1.31602 -1.85386,-1.48452 -0.86085,-0.16992 -1.80743,0.0596 -2.86117,0.67649 -2.05567,1.20215 -4.14885,2.29694 -6.26882,3.28662 0.67153,2.10409 1.34307,4.20834 2.0146,6.31243 2.25928,-1.05099 4.48819,-2.21795 6.67961,-3.49893 z m 13.57174,5.50457 c -0.46436,0.58243 -0.98944,1.08165 -1.5681,1.49767 -0.484,0.34595 -1.00908,0.63935 -1.57346,0.87582 -0.96622,0.41375 -1.861,0.26713 -2.66648,-0.42705 -0.43221,-0.3393 -0.8412,-0.95676 -1.23055,-1.85009 -0.39112,-0.88687 -0.86977,-1.57876 -1.42701,-2.07799 -0.55901,-0.49484 -1.13231,-0.8189 -1.7199,-0.97427 -1.01087,-0.25836 -2.02353,-0.0876 -3.06476,0.50798 -2.0146,1.15171 -4.05955,2.20918 -6.13131,3.17259 0.98587,3.08729 1.96995,6.17248 2.95582,9.25977 -1.26806,0.59118 -2.54682,1.14943 -3.83095,1.6772 -2.00388,-7.11399 -4.00776,-14.2257 -6.00986,-21.33951 3.12727,-1.28309 6.19739,-2.79616 9.19071,-4.54343 2.88258,-1.68808 5.17044,-2.11285 7.05287,-1.05748 0.63582,0.36119 1.11982,0.86269 1.44308,1.52394 0.33042,0.67877 0.5233,1.34439 0.56973,1.99899 0.0448,0.65248 -0.01,1.32915 -0.17145,2.02316 -0.32505,1.44073 -1.0323,2.65165 -2.11283,3.58651 0.0214,0.0473 0.0429,0.0981 0.0643,0.14714 1.68597,-0.45981 3.19335,-0.24297 4.5507,0.70293 0.63224,0.44002 1.15375,1.07288 1.5556,1.90492 0.41078,0.84955 0.76083,1.46701 1.05374,1.84134 0.2929,0.3745 0.57508,0.64374 0.84655,0.80576 0.51437,0.26503 1.12518,0.25627 1.82707,-0.0368 0.13217,0.26064 0.26433,0.52111 0.39649,0.78176"
       style="fill:#c0a676;fill-opacity:1;fill-rule:nonzero;stroke:none"
       id="path68" />
    <path
       inkscape:connector-curvature="0"
       d="m 333.98948,859.94814 c 0.7519,3.98501 1.36093,8.05113 1.81814,12.18276 2.73078,-2.54867 5.36154,-5.30524 7.87621,-8.27219 -3.26657,-1.18009 -6.44741,-2.54638 -9.53003,-4.08346 -0.0553,0.0596 -0.10888,0.11562 -0.16432,0.17342 z m 12.35727,4.82581 c -3.2255,3.92371 -6.64567,7.50145 -10.22658,10.73764 0.17324,1.87864 0.31611,3.77043 0.42685,5.67324 -1.0966,0.93924 -2.20749,1.848 -3.33087,2.72821 -0.16967,-8.81309 -1.02338,-17.41143 -2.51646,-25.66172 0.96979,-0.97655 1.92351,-1.98165 2.85937,-3.0195 6.44028,3.03264 13.29669,5.28999 20.47995,6.64314 -1.01802,1.43864 -2.05746,2.83768 -3.12013,4.19959 -1.54131,-0.39412 -3.06476,-0.82766 -4.57213,-1.3006"
       style="fill:#c0a676;fill-opacity:1;fill-rule:nonzero;stroke:none"
       id="path70" />
    <path
       inkscape:connector-curvature="0"
       d="m 371.76318,825.64202 c -4.73824,-2.3078 -9.47825,-4.61333 -14.21827,-6.92113 -0.0303,0.0946 -0.0608,0.1883 -0.091,0.28465 3.53626,6.0432 6.72247,12.60086 9.50325,19.58348 -0.60187,1.40569 -1.21982,2.7895 -1.85564,4.15141 -6.2081,0.68963 -12.27868,0.60642 -18.13852,-0.1664 -0.0357,0.063 -0.0731,0.12436 -0.11073,0.18829 4.09707,3.75064 8.19413,7.49919 12.29297,11.25 -0.78405,1.31584 -1.58417,2.60558 -2.40215,3.86887 -4.77574,-4.74259 -9.55148,-9.48292 -14.329,-14.22552 1.15554,-1.78459 2.26999,-3.63468 3.3398,-5.55064 5.49013,0.66125 11.16066,0.70066 16.95084,0.0525 0.0286,-0.0648 0.0572,-0.12963 0.0857,-0.19479 -2.63433,-6.45274 -5.62587,-12.53098 -8.92995,-18.15817 0.77869,-2.27486 1.50559,-4.61332 2.17712,-7.01536 5.79554,2.43479 11.59108,4.86521 17.38662,7.30002 -0.52509,1.88302 -1.07875,3.73329 -1.66098,5.55273"
       style="fill:#c0a676;fill-opacity:1;fill-rule:nonzero;stroke:none"
       id="path72" />
  </g>
</svg>
