<?xml version="1.0" encoding="UTF-8" standalone="no"?>
<!-- Generator: Adobe Illustrator 19.0.0, SVG Export Plug-In . SVG Version: 6.00 Build 0)  -->

<svg
   xmlns:dc="http://purl.org/dc/elements/1.1/"
   xmlns:cc="http://creativecommons.org/ns#"
   xmlns:rdf="http://www.w3.org/1999/02/22-rdf-syntax-ns#"
   xmlns:svg="http://www.w3.org/2000/svg"
   xmlns="http://www.w3.org/2000/svg"
   xmlns:sodipodi="http://sodipodi.sourceforge.net/DTD/sodipodi-0.dtd"
   xmlns:inkscape="http://www.inkscape.org/namespaces/inkscape"
   version="1.1"
   id="Capa_1"
   x="0px"
   y="0px"
   viewBox="0 0 14.407708 9.6337822"
   xml:space="preserve"
   width="15.09"
   height="10.09"
   inkscape:version="0.48.4 r9939"
   sodipodi:docname="eye.png"><metadata
     id="metadata41"><rdf:RDF><cc:Work
         rdf:about=""><dc:format>image/svg+xml</dc:format><dc:type
           rdf:resource="http://purl.org/dc/dcmitype/StillImage" /><dc:title></dc:title></cc:Work></rdf:RDF></metadata><defs
     id="defs39" /><sodipodi:namedview
     pagecolor="#000000"
     bordercolor="#000000"
     borderopacity="0"
     objecttolerance="10"
     gridtolerance="10"
     guidetolerance="10"
     inkscape:pageopacity="0"
     inkscape:pageshadow="2"
     inkscape:window-width="1366"
     inkscape:window-height="713"
     id="namedview37"
     showgrid="false"
     inkscape:showpageshadow="false"
     showborder="true"
     inkscape:zoom="1.84375"
     inkscape:cx="77.70415"
     inkscape:cy="68.942481"
     inkscape:window-x="0"
     inkscape:window-y="30"
     inkscape:window-maximized="1"
     inkscape:current-layer="Capa_1" /><g
     id="g3"
     style="fill:#e6e6e6"
     transform="matrix(0.029661,0,0,0.03147554,0.03235988,-2.9792111)"><path
       d="m 244.425,98.725 c -93.4,0 -178.1,51.1 -240.6,134.1 -5.1,6.8 -5.1,16.3 0,23.1 62.5,83.1 147.2,134.2 240.6,134.2 93.4,0 178.1,-51.1 240.6,-134.1 5.1,-6.8 5.1,-16.3 0,-23.1 -62.5,-83.1 -147.2,-134.2 -240.6,-134.2 z m 6.7,248.3 c -62,3.9 -113.2,-47.2 -109.3,-109.3 3.2,-51.2 44.7,-92.7 95.9,-95.9 62,-3.9 113.2,47.2 109.3,109.3 -3.3,51.1 -44.8,92.6 -95.9,95.9 z m -3.1,-47.4 c -33.4,2.1 -61,-25.4 -58.8,-58.8 1.7,-27.6 24.1,-49.9 51.7,-51.7 33.4,-2.1 61,25.4 58.8,58.8 -1.8,27.7 -24.2,50 -51.7,51.7 z"
       id="path5"
       style="fill:#e6e6e6"
       inkscape:connector-curvature="0" /></g><g
     id="g7"
     transform="translate(0,-479.21622)" /><g
     id="g9"
     transform="translate(0,-479.21622)" /><g
     id="g11"
     transform="translate(0,-479.21622)" /><g
     id="g13"
     transform="translate(0,-479.21622)" /><g
     id="g15"
     transform="translate(0,-479.21622)" /><g
     id="g17"
     transform="translate(0,-479.21622)" /><g
     id="g19"
     transform="translate(0,-479.21622)" /><g
     id="g21"
     transform="translate(0,-479.21622)" /><g
     id="g23"
     transform="translate(0,-479.21622)" /><g
     id="g25"
     transform="translate(0,-479.21622)" /><g
     id="g27"
     transform="translate(0,-479.21622)" /><g
     id="g29"
     transform="translate(0,-479.21622)" /><g
     id="g31"
     transform="translate(0,-479.21622)" /><g
     id="g33"
     transform="translate(0,-479.21622)" /><g
     id="g35"
     transform="translate(0,-479.21622)" /></svg>